# xmcd
#
# Track frame offsets:
#	180
#	19969
#	34488
#	48505
#	60279
#	68448
#	81329
#	93599
#	105792
#	122940
#	136464
#	147697
#	159834
#	168507
#	180446
#	189889
#
# Disc length: 2680 seconds
#
# Revision: 0
# Processed by: cddbd v1.5.2PL0 Copyright (c) Steve Scherf et al.
# Submitted via: dBpowerAMP V4.0
#
DISCID=d40a7610
DTITLE=Various Artist - Southern Belle CD 2
DYEAR=1900
DGENRE=Country
TTITLE0=B F Shelton - Pretty Polly
TTITLE1=Yellow Jackets - Huskin' bee
TTITLE2=Jimmie Rodgers - No hard times
TTITLE3=The Delmore Brothers - Brown's ferry blues
TTITLE4=Gene Autrey - Take me back
TTITLE5=Curly Williams - Southern Belle
TTITLE6=Bob Wills - Brain cloudy blues
TTITLE7=Jimmy Widener - I'll be satisfied
TTITLE8=Dickie Jones - Diggin'
TTITLE9=Merle Travis - Merle's boogie woogie
TTITLE10=Jimmy Wakely - Oklahoma blues
TTITLE11=Rip Ramsey - Wanderer's swing
TTITLE12=Johnny Bond - Ridin' down to Santa Fe
TTITLE13=Hank Williams - The blues come around
TTITLE14=Tennessee Ernie Ford - Anticipation blues
TTITLE15=Tommy Scott - Gonna paint the town red
EXTD=
EXTT0=
EXTT1=
EXTT2=
EXTT3=
EXTT4=
EXTT5=
EXTT6=
EXTT7=
EXTT8=
EXTT9=
EXTT10=
EXTT11=
EXTT12=
EXTT13=
EXTT14=
EXTT15=
PLAYORDER=
